<svg xmlns="http://www.w3.org/2000/svg" viewBox="0 0 200 200" fill="none">
  <defs>
    <!-- Rich Metallic Lime & Olive Green Gradients matching uploaded 3D design -->
    <linearGradient id="greenMain" x1="0%" y1="0%" x2="100%" y2="100%">
      <stop offset="0%" stop-color="#d9f99d" />
      <stop offset="28%" stop-color="#a3e635" />
      <stop offset="65%" stop-color="#65a30d" />
      <stop offset="100%" stop-color="#3f6212" />
    </linearGradient>

    <linearGradient id="greenBright" x1="0%" y1="100%" x2="100%" y2="0%">
      <stop offset="0%" stop-color="#4d7c0f" />
      <stop offset="45%" stop-color="#84cc16" />
      <stop offset="85%" stop-color="#bef264" />
      <stop offset="100%" stop-color="#f7fee7" />
    </linearGradient>

    <linearGradient id="greenBlade" x1="0%" y1="50%" x2="100%" y2="30%">
      <stop offset="0%" stop-color="#84cc16" />
      <stop offset="50%" stop-color="#bef264" />
      <stop offset="100%" stop-color="#ffffff" />
    </linearGradient>

    <!-- Crisp ambient drop shadow -->
    <filter id="logoShadow" x="-20%" y="-20%" width="140%" height="140%">
      <feDropShadow dx="0" dy="3" stdDeviation="3" flood-color="#000000" flood-opacity="0.85" />
      <feDropShadow dx="0" dy="1" stdDeviation="1.5" flood-color="#84cc16" flood-opacity="0.4" />
    </filter>
  </defs>

  <!-- Transparent Background - Exact Geometric SA Logo with Perfectly Equal S Proportions -->
  <g filter="url(#logoShadow)">
    <!-- Letter S: Perfectly Equal Symmetric Upper & Lower Curves -->
    <path d="M 98 46 L 44 46 C 28 46 18 56 18 72 C 18 88 28 98 44 98 L 74 98 C 90 98 100 108 100 124 C 100 140 90 150 74 150 L 20 150 L 30 168 L 74 168 C 102 168 118 152 118 124 C 118 96 102 80 74 80 L 44 80 C 36 80 34 76 34 72 C 34 68 36 64 44 64 L 88 64 Z" fill="url(#greenMain)"/>
    
    <!-- Letter A Peak & Right Stance -->
    <path d="M 132 38 L 104 100 L 122 100 L 132 76 L 142 100 L 160 100 Z" fill="url(#greenBright)"/>
    
    <!-- Lower Right Leg of A below the blade cut -->
    <path d="M 148 126 L 168 162 L 188 162 L 162 118 Z" fill="url(#greenMain)"/>
    <path d="M 112 140 L 122 162 L 140 162 L 130 140 Z" fill="url(#greenMain)"/>

    <!-- Signature Dynamic Lime Green & Silver Slash Swoosh / Blade cutting across A -->
    <path d="M 96 150 C 120 134 148 116 186 98 C 158 108 132 124 104 162 Z" fill="url(#greenBlade)"/>
  </g>
</svg>
