<svg xmlns="http://www.w3.org/2000/svg" viewBox="0 0 200 200" fill="none">
  <defs>
    <!-- Rich 24K Metallic Brushed Gold Gradients matching user logo -->
    <linearGradient id="goldMain" x1="0%" y1="0%" x2="100%" y2="100%">
      <stop offset="0%" stop-color="#fef08a" />
      <stop offset="30%" stop-color="#facc15" />
      <stop offset="65%" stop-color="#ca8a04" />
      <stop offset="100%" stop-color="#854d0e" />
    </linearGradient>

    <linearGradient id="goldBright" x1="0%" y1="100%" x2="100%" y2="0%">
      <stop offset="0%" stop-color="#ca8a04" />
      <stop offset="45%" stop-color="#eab308" />
      <stop offset="85%" stop-color="#fef9c3" />
      <stop offset="100%" stop-color="#ffffff" />
    </linearGradient>

    <linearGradient id="goldBlade" x1="0%" y1="50%" x2="100%" y2="30%">
      <stop offset="0%" stop-color="#eab308" />
      <stop offset="50%" stop-color="#fef08a" />
      <stop offset="100%" stop-color="#ffffff" />
    </linearGradient>

    <!-- Crisp ambient drop shadow so the transparent letters pop on dark & light tabs -->
    <filter id="logoShadow" x="-20%" y="-20%" width="140%" height="140%">
      <feDropShadow dx="0" dy="3" stdDeviation="3" flood-color="#000000" flood-opacity="0.85" />
      <feDropShadow dx="0" dy="1" stdDeviation="1.5" flood-color="#eab308" flood-opacity="0.35" />
    </filter>
  </defs>

  <!-- Transparent Background - Exact Geometric SA Logo with Signature Swoosh Blade -->
  <g filter="url(#logoShadow)">
    <!-- Letter S with sharp angled cut ends and bold geometric bars -->
    <path d="M 98 48 L 48 48 C 34 48 24 58 24 72 L 24 78 C 24 92 34 100 48 100 L 76 100 C 86 100 92 106 92 116 L 92 122 C 92 134 82 142 68 142 L 18 142 L 28 162 L 72 162 C 96 162 114 146 114 122 L 114 116 C 114 94 98 84 76 84 L 48 84 C 40 84 36 80 36 74 L 36 72 C 36 66 40 64 48 64 L 88 64 Z" fill="url(#goldMain)"/>
    
    <!-- Letter A Peak & Right Stance -->
    <path d="M 132 38 L 104 100 L 122 100 L 132 76 L 142 100 L 160 100 Z" fill="url(#goldBright)"/>
    
    <!-- Lower Right Leg of A below the blade cut -->
    <path d="M 148 126 L 168 162 L 188 162 L 162 118 Z" fill="url(#goldMain)"/>
    <path d="M 112 140 L 122 162 L 140 162 L 130 140 Z" fill="url(#goldMain)"/>

    <!-- Signature Dynamic Dynamic Golden Slash Swoosh / Blade cutting across A -->
    <path d="M 96 150 C 120 134 148 116 186 98 C 158 108 132 124 104 162 Z" fill="url(#goldBlade)"/>
  </g>
</svg>
