<svg xmlns="http://www.w3.org/2000/svg" viewBox="0 0 220 180" fill="none">
  <defs>
    <!-- Top Face Satin Metallic Lime Green Gradient -->
    <linearGradient id="faceGreen" x1="0%" y1="0%" x2="100%" y2="100%">
      <stop offset="0%" stop-color="#ecfccb" />
      <stop offset="25%" stop-color="#a3e635" />
      <stop offset="65%" stop-color="#65a30d" />
      <stop offset="100%" stop-color="#4d7c0f" />
    </linearGradient>

    <!-- 3D Extruded Side Wall / Bevel Depth Gradient -->
    <linearGradient id="depthGreen" x1="0%" y1="0%" x2="100%" y2="100%">
      <stop offset="0%" stop-color="#3f6212" />
      <stop offset="60%" stop-color="#1a2e05" />
      <stop offset="100%" stop-color="#0d1802" />
    </linearGradient>

    <!-- Specular Highlight Edge -->
    <linearGradient id="edgeGlow" x1="0%" y1="100%" x2="100%" y2="0%">
      <stop offset="0%" stop-color="#65a30d" />
      <stop offset="50%" stop-color="#bef264" />
      <stop offset="100%" stop-color="#ffffff" />
    </linearGradient>

    <!-- High-end ambient occlusion drop shadow -->
    <filter id="premiumShadow" x="-25%" y="-25%" width="150%" height="150%">
      <feDropShadow dx="0" dy="5" stdDeviation="4" flood-color="#000000" flood-opacity="0.9" />
      <feDropShadow dx="0" dy="1" stdDeviation="2" flood-color="#84cc16" flood-opacity="0.35" />
    </filter>
  </defs>

  <!-- Transparent Background - Exact 3D Extruded Finishing of Uploaded SA Logo -->
  <g filter="url(#premiumShadow)">
    <!-- 1. 3D EXTRUDED SIDE WALLS & DEPTH LAYER (Offset down and right for realistic 3D thickness) -->
    <g transform="translate(2.5, 4.5)" fill="url(#depthGreen)">
      <!-- S Depth -->
      <path d="M 104 32 L 50 32 C 26 32 12 46 12 66 C 12 86 26 98 48 98 L 74 98 C 92 98 102 108 102 124 C 102 140 92 150 74 150 L 14 150 L 26 168 L 76 168 C 108 168 126 150 126 124 C 126 96 108 78 74 78 L 48 78 C 34 78 30 72 30 66 C 30 58 34 52 48 52 L 92 52 Z"/>
      <!-- A Peak & Right Leg Depth -->
      <path d="M 136 32 L 102 102 L 122 102 L 136 72 L 146 102 L 166 102 Z"/>
      <path d="M 152 128 L 172 168 L 194 168 L 168 116 Z"/>
      <path d="M 114 140 L 126 168 L 146 168 L 134 140 Z"/>
      <!-- Swoosh Blade Depth -->
      <path d="M 98 152 C 124 134 154 114 196 94 C 166 106 136 124 106 166 Z"/>
    </g>

    <!-- 2. FRONT SATIN METALLIC GREEN FACE LAYER (Sharp geometric precision) -->
    <g fill="url(#faceGreen)">
      <!-- S Face: Exact uploaded shape with equal loop geometry & angled cuts -->
      <path d="M 104 32 L 50 32 C 26 32 12 46 12 66 C 12 86 26 98 48 98 L 74 98 C 92 98 102 108 102 124 C 102 140 92 150 74 150 L 14 150 L 26 168 L 76 168 C 108 168 126 150 126 124 C 126 96 108 78 74 78 L 48 78 C 34 78 30 72 30 66 C 30 58 34 52 48 52 L 92 52 Z"/>
      <!-- A Peak & Right Leg Face -->
      <path d="M 136 32 L 102 102 L 122 102 L 136 72 L 146 102 L 166 102 Z"/>
      <path d="M 152 128 L 172 168 L 194 168 L 168 116 Z"/>
      <path d="M 114 140 L 126 168 L 146 168 L 134 140 Z"/>
      <!-- Dynamic Swoosh Blade Face -->
      <path d="M 98 152 C 124 134 154 114 196 94 C 166 106 136 124 106 166 Z" fill="url(#edgeGlow)"/>
    </g>

    <!-- 3. SPECULAR BEVEL EDGE HIGHLIGHTS (Finishing polish along top edges) -->
    <path d="M 104 32 L 50 32 C 26 32 18 36 14 44" stroke="#ffffff" stroke-width="2" stroke-linecap="round" opacity="0.6"/>
    <path d="M 136 32 L 146 102" stroke="#ffffff" stroke-width="1.5" stroke-linecap="round" opacity="0.5"/>
  </g>
</svg>
